<svg width="195" height="183" viewBox="0 0 195 183" fill="none" xmlns="http://www.w3.org/2000/svg">
<path d="M195 91.5C195 142.034 151.348 183 97.5 183C43.6522 183 0 142.034 0 91.5C0 40.9659 43.6522 0 97.5 0C151.348 0 195 40.9659 195 91.5Z" fill="#00A5D9"/>
<path d="M195 91.5C195 142.034 151.348 183 97.5 183C43.6522 183 0 142.034 0 91.5C0 40.9659 43.6522 0 97.5 0C151.348 0 195 40.9659 195 91.5Z" fill="url(#paint0_linear_1_13)" fill-opacity="0.3"/>
<path d="M109.529 113.467L84.4167 103.756V134.933L109.529 113.467Z" fill="#A7BDD1"/>
<path d="M130.368 56.7333L65.1814 99.1556L81.4218 134.933H84.4167L88.6418 107.512L138.917 62.8667L130.368 56.7333Z" fill="#BAD2E8"/>
<path d="M148 46L39 88.4222L65.7157 99.6667L134.108 62.8667L84.4167 110.4L134.108 138L148 46Z" fill="white"/>
<defs>
<linearGradient id="paint0_linear_1_13" x1="-130.956" y1="3.40864e-06" x2="-130.956" y2="183" gradientUnits="userSpaceOnUse">
<stop stop-color="white"/>
<stop offset="1" stop-color="#A0C6FF" stop-opacity="0"/>
</linearGradient>
</defs>
</svg>
